<mxfile host="app.diagrams.net" modified="2021-12-09T09:31:48.421Z" agent="5.0 (Windows NT 10.0; Win64; x64) AppleWebKit/537.36 (KHTML, like Gecko) Chrome/96.0.4664.93 Safari/537.36" etag="40K96LcT4Cb9Ta6m9JWY" version="15.9.4" type="github">
  <diagram id="-gTIRzFwVV37zHlkKI5D" name="Page-1">
    <mxGraphModel dx="782" dy="436" grid="1" gridSize="10" guides="1" tooltips="1" connect="1" arrows="1" fold="1" page="1" pageScale="1" pageWidth="850" pageHeight="1100" math="0" shadow="0">
      <root>
        <mxCell id="0" />
        <mxCell id="1" parent="0" />
        <mxCell id="4CpjmlWcwkXgOnOD7Qlk-4" value="" style="edgeStyle=orthogonalEdgeStyle;rounded=0;orthogonalLoop=1;jettySize=auto;html=1;" edge="1" parent="1" source="4CpjmlWcwkXgOnOD7Qlk-1" target="4CpjmlWcwkXgOnOD7Qlk-3">
          <mxGeometry relative="1" as="geometry" />
        </mxCell>
        <mxCell id="4CpjmlWcwkXgOnOD7Qlk-13" value="" style="edgeStyle=orthogonalEdgeStyle;rounded=0;orthogonalLoop=1;jettySize=auto;html=1;" edge="1" parent="1" source="4CpjmlWcwkXgOnOD7Qlk-1" target="4CpjmlWcwkXgOnOD7Qlk-5">
          <mxGeometry relative="1" as="geometry" />
        </mxCell>
        <mxCell id="4CpjmlWcwkXgOnOD7Qlk-14" value="" style="edgeStyle=orthogonalEdgeStyle;rounded=0;orthogonalLoop=1;jettySize=auto;html=1;" edge="1" parent="1" source="4CpjmlWcwkXgOnOD7Qlk-1" target="4CpjmlWcwkXgOnOD7Qlk-6">
          <mxGeometry relative="1" as="geometry" />
        </mxCell>
        <mxCell id="4CpjmlWcwkXgOnOD7Qlk-1" value="Need To Run Project Directory" style="rounded=1;whiteSpace=wrap;html=1;" vertex="1" parent="1">
          <mxGeometry x="350" y="30" width="120" height="60" as="geometry" />
        </mxCell>
        <mxCell id="4CpjmlWcwkXgOnOD7Qlk-15" value="" style="edgeStyle=orthogonalEdgeStyle;rounded=0;orthogonalLoop=1;jettySize=auto;html=1;" edge="1" parent="1" source="4CpjmlWcwkXgOnOD7Qlk-3" target="4CpjmlWcwkXgOnOD7Qlk-11">
          <mxGeometry relative="1" as="geometry" />
        </mxCell>
        <mxCell id="4CpjmlWcwkXgOnOD7Qlk-3" value="AutoAI Lab System&amp;nbsp;" style="whiteSpace=wrap;html=1;rounded=1;" vertex="1" parent="1">
          <mxGeometry x="350" y="170" width="120" height="60" as="geometry" />
        </mxCell>
        <mxCell id="4CpjmlWcwkXgOnOD7Qlk-5" value="Local Sytsem" style="rounded=1;whiteSpace=wrap;html=1;" vertex="1" parent="1">
          <mxGeometry x="160" y="30" width="120" height="60" as="geometry" />
        </mxCell>
        <mxCell id="4CpjmlWcwkXgOnOD7Qlk-6" value="Palmetto" style="rounded=1;whiteSpace=wrap;html=1;" vertex="1" parent="1">
          <mxGeometry x="530" y="30" width="120" height="60" as="geometry" />
        </mxCell>
        <mxCell id="4CpjmlWcwkXgOnOD7Qlk-11" value="" style="rounded=1;whiteSpace=wrap;html=1;" vertex="1" parent="1">
          <mxGeometry x="350" y="300" width="120" height="60" as="geometry" />
        </mxCell>
      </root>
    </mxGraphModel>
  </diagram>
</mxfile>
